<svg viewBox="0 0 512 512" xmlns="http://www.w3.org/2000/svg">
  <style>
    path { fill: #18181B }

    @media (prefers-color-scheme: dark) {
      path { fill: #FAFAFA }
    }
  </style>

 <path d="m256.6 443.4c-4.8309-2.6221-9.8513-8.1644-12.541-13.843-2.982-6.2969-15.967-40.085-20.93-54.456-7.6141-22.055-17.654-47.948-19.321-49.832-0.7812-0.88297-20.377 17.54-49.266 46.322-21.978 21.894-32.959 32.227-35.46 33.363-4.2663 1.9386-10.854 2.1627-14.813 0.50403-3.9741-1.6648-9.1093-7.6881-10.288-12.067-1.8993-7.0557 0.39107-13.587 9.8532-28.097 5.2425-8.0403 25.188-33.307 37.983-48.116 4.5295-5.2424 7.6804-9.5314 7.0019-9.5314-0.67946 0-6.4923 0.61722-12.919 1.3716-6.6649 0.78235-19.018 1.3837-28.757 1.3999-32.627 0.0542-50.175-4.7781-62.602-17.238-12.23-12.264-15.333-26.739-10.107-47.155 6.0135-23.493 28.008-55.309 52.661-76.177 29.031-24.574 54.086-36.903 69.255-34.08 7.4209 1.3809 13.84 4.7211 19.949 10.379 5.8427 5.4122 7.4181 8.9495 6.8096 15.287-0.85587 8.911-8.7332 15.841-36.201 31.849-21.893 12.759-31.22 20.368-48.217 39.337-14.856 16.58-21.331 27.39-21.576 36.02-0.10547 3.7249 1.1013 5.1438 6.7079 7.8886 9.1812 4.4941 32.063 4.6393 57.279 0.36349 5.9155-1.0032 18.847-3.8958 28.736-6.428l17.981-4.6039 9.5023-10.061c27.945-29.586 74.873-71.957 126.95-114.63 29.454-24.132 47.072-37.407 69.168-52.12 22.671-15.096 31.854-19.412 45.972-21.608 12.246-1.905 24.577 2.3105 33.849 11.574 7.0607 7.0528 8.4579 13.334 4.7189 21.218-3.5896 7.5691-10.138 12.899-29.38 23.917-15.433 8.8358-27.195 16.566-48.593 31.933-39.021 28.024-77.884 57.593-100.35 76.347-16.145 13.479-41.04 35.222-40.708 35.554 0.1484 0.14802 7.7159-0.11902 16.817-0.59341 14.837-0.77336 78.383-2.59 103.22-2.951 8.3197-0.12089 10.108 0.11449 13.133 1.7286 4.2943 2.2914 6.0984 4.225 7.8465 8.4102 3.6876 8.8314-0.0467 19.103-8.6137 23.687-3.5859 1.9197-3.8612 1.9308-40.821 1.6499-33.709-0.2562-92.646 0.93511-103.82 2.0984l-4.4464 0.46303 3.7763 9.373c5.0895 12.631 25.784 75.103 29.223 88.218 2.198 8.3814 2.7851 12.466 2.8961 20.149 0.12973 8.9513-0.0373 9.9951-2.3361 14.681-4.4212 9.0099-12.073 12.391-19.236 8.502zm-49.877-302.23c-5.5617-1.4015-9.8523-4.0686-14.036-8.7236-4.9961-5.5599-6.2048-9.114-5.6663-16.65 0.7588-10.609 8.9516-21.229 19.719-25.561 7.2753-2.9274 19.044-2.9022 25.045 0.05363 9.3856 4.6226 13.645 11.519 13.675 22.138 0.0187 5.8822-0.33227 7.3932-2.8261 12.212-5.0045 9.6714-15.513 16.217-27.303 17.007-2.9213 0.1956-6.7947-0.0182-8.6081-0.47515z" />
</svg>
